<svg width="179px" height="179px" viewBox="-4.8 -4.8 57.60 57.60" xmlns="http://www.w3.org/2000/svg" fill="#ffffff"><g id="SVGRepo_bgCarrier" stroke-width="0" transform="translate(4.080000000000002,4.080000000000002), scale(0.83)"><rect x="-4.8" y="-4.8" width="57.60" height="57.60" rx="28.8" fill="#5e5c70"></rect></g><g id="SVGRepo_tracerCarrier" stroke-linecap="round" stroke-linejoin="round"></g><g id="SVGRepo_iconCarrier"> <title>pause-circle-solid</title> <g id="Layer_2"> <g id="invisible_box"> <rect width="48" height="48" fill="none"></rect> </g> <g id="icons_Q2"> <path d="M24,2A22,22,0,1,0,46,24,21.9,21.9,0,0,0,24,2ZM21,31a2,2,0,0,1-4,0V17a2,2,0,0,1,2-2,2.1,2.1,0,0,1,2,2Zm10,0a2,2,0,0,1-4,0V17a2,2,0,0,1,2-2,2.1,2.1,0,0,1,2,2Z"></path> </g> </g> </g></svg>