<svg fill="#ffffff" height="179px" width="179px" version="1.1" id="Capa_1" xmlns="http://www.w3.org/2000/svg" xmlns:xlink="http://www.w3.org/1999/xlink" viewBox="-4 -4 47.99 47.99" xml:space="preserve" stroke="#ffffff" stroke-width="0.00039988999999999997"><g id="SVGRepo_bgCarrier" stroke-width="0" transform="translate(2.5992849999999983,2.5992849999999983), scale(0.87)"><rect x="-4" y="-4" width="47.99" height="47.99" rx="23.995" fill="#5e5c70" ></rect></g><g id="SVGRepo_tracerCarrier" stroke-linecap="round" stroke-linejoin="round" stroke="#CCCCCC" stroke-width="1.4396039999999999"></g><g id="SVGRepo_iconCarrier"> <path id="XMLID_150_" d="M19.994,0C8.952,0,0,8.952,0,19.995c0,11.043,8.952,19.994,19.994,19.994 c11.043,0,19.995-8.952,19.995-19.994C39.989,8.952,31.037,0,19.994,0z M27.744,24.526c0,1.778-1.441,3.219-3.219,3.219h-9.063 c-1.778,0-3.219-1.441-3.219-3.219v-9.063c0-1.778,1.441-3.219,3.219-3.219h9.063c1.778,0,3.219,1.441,3.219,3.219V24.526z"></path> </g></svg>